<svg xmlns="http://www.w3.org/2000/svg" viewBox="0 0 900 440" xml:space="preserve">
  <path d="M461.504 144.545c8.438 8.866 13.94 19.12 15.665 31.411 4.227 30.114-3.636 54.77-30.7 72.71-14.913 9.883-31.75 13.917-49.59 15.563-18.806 1.735-36.434-1.77-53.864-7.959-2.548 3.633-1.707 7.805 3.155 9.612 5.625 2.09 11.737 3.792 17.68 3.939 19.488.481 38.997 0 58.494.234 17.947.216 35.146 3.686 50.614 13.431 8.576 5.403 15.402 12.481 20.213 21.472 1.352-5.516 2.196-11.13 4.114-16.348 4.267-11.604 17.737-15.293 27.666-13.099 7.651 1.692 7.646 1.842 8.919-5.702.219-1.301.127-2.66.127-3.992.005-46.832.004-93.664.004-140.496 0-.5.056-1.008-.01-1.5-.417-3.107-.067-6.741-1.636-9.09-.77-1.153-5.124-.017-7.84.252-23.123 2.288-32.05-13.828-29.898-33.264.932-8.425 3.862-15.718 10.442-21.259 7.256-6.11 15.68-7.765 24.996-6.98 15.255 1.284 30.463 4.806 45.883.82 4.267-1.102 8.89-1.383 13.316-1.2 11.735.489 18.468 6.15 18.628 19.205.365 29.661.117 59.33.117 88.996 0 34.166-.023 68.332.041 102.498.005 2.951.752 5.895.856 8.854.136 3.836 1.553 4.452 5.402 3.87 9.354-1.416 18.79-1.605 25.541 6.878 5.462 6.864 6.401 15.097 5.9 23.448-.232 3.888-1.46 7.747-2.487 11.55-3.3 12.21-13.725 18.47-24.787 18.395-12.53-.086-25.037-2.051-37.58-2.56-9.442-.383-18.928.148-28.39.443-11.672.363-23.345 1.377-35.005 1.202-7.948-.12-12.806-6.319-17.307-11.388-.715 8.587-.5 17.774-2.48 26.46-1.987 8.723-6.16 16.949-9.508 25.743H860.6v8.305h-6.68c-122.33 0-244.66.094-366.99-.233-7.363-.02-11.646 3.78-16.444 7.54-15.41 12.077-33.454 17.674-52.173 21.69-19.686 4.223-39.728 3.855-59.546 2.727-24.127-1.374-47.384-7.1-67.523-21.674-2.276-1.647-4.98-3.009-6.623-5.161-3.635-4.763-8.348-4.974-13.706-4.966-74.665.114-149.33.077-223.995.077h-6.628v-7.83h232.346c-13.694-30.896-11.426-57.107 20.122-75.532-16.173-9.818-20.989-24.79-19.596-42.326 1.43-18.007 11.43-30.226 27.977-37.948-1.413-2.485-2.623-4.364-3.595-6.36-11.043-22.66-9.12-44.532 5.753-64.54 15.13-20.354 36.446-30.602 61.381-33.407 7.23-.814 14.56-.772 21.846-1.033 2.33-.083 3.996-.255 4.536-3.275 3.606-20.157 16.204-31.937 35.511-36.983 16.863-4.407 33.392-3.72 49.11 4.57 12.99 6.854 20.854 17.347 21.242 32.325.477 18.45-12.517 31.35-30.95 31.336-1 0-2-.02-3.584-.283-.97-.282-1.356-.311-1.742-.341l.855 1.173m-92.089-15.55c-20.778 1.636-38.62 9.54-52.878 24.95-17.011 18.386-18.842 46.224-.253 65.86 1.684 1.78 3.194 3.722 4.722 5.514-6.467 3.328-12.73 6.305-18.75 9.708-7.908 4.47-14.147 10.616-15.724 19.962-.793 4.699-.594 9.603-.493 14.407.16 7.699 2.883 14.686 9.563 18.595 5.978 3.497 12.801 5.652 19.415 7.922 4.608 1.58 9.492 2.355 14.253 3.49l-.013 1.962c-1.997.883-3.96 1.854-5.998 2.633-8.893 3.399-18.273 5.865-26.615 10.294-15.667 8.319-20.832 21.437-19.468 35.602 1.528 15.876 10.069 27.598 23.206 36.345 19.815 13.192 42.254 17.339 65.324 18.626 18.058 1.007 36.104-.096 53.912-3.84 17.533-3.685 33.872-10.117 47.513-21.909 14.578-12.602 20.816-28.894 19.958-48.216-.665-14.962-6.765-26.729-18.777-35.428-14.43-10.448-31.334-12.779-48.382-13.32-20.089-.639-40.234.36-60.313-.426-7.122-.278-14.67-2.645-21.055-5.935-11.437-5.893-12.837-20.7-3.97-29.982 3.28-3.433 6.101-4.27 10.829-2.224 22.431 9.704 45.834 11.453 69.33 5.231 25.837-6.84 45.785-20.644 50.383-49.436 4.097-25.649-5.37-48.09-31.454-57.42-3.931-1.406-5.982-3.65-6.43-7.705-.978-8.82 2.646-21.372 15.581-20.279 6.693.566 9.29 5.732 12.126 10.542 4.57 7.752 9.267 6.849 16.821 6.352 4.793-.315 11.457-7.1 12.112-12.003 1.37-10.252-1.175-18.981-10.268-25.127-13.828-9.347-28.82-9.442-44.24-5.73-13.674 3.29-22.756 11.58-25.822 25.577-1.082 4.94-1.35 10.058-2.017 15.315-4.172 0-8.307-.007-12.442.002-6.258.013-12.515.037-19.686.092m140.955-55.92c-4.342 6.03-3.837 13.012-3.152 19.707.49 4.8 3.415 8.998 8.886 9.167 4.817.15 9.71-.52 14.493-1.3 5.354-.873 9.98.529 11.869 5.41 1.806 4.668 3.362 9.8 3.387 14.735.243 49.657.193 99.316.06 148.973-.01 3.886-.854 7.894-2.013 11.627-2.298 7.406-7.503 9.948-15.098 7.973-2.068-.538-4.16-.989-6.242-1.471-7.778-1.803-14.178 2.09-15.374 9.768-.533 3.42-.599 7.048-.096 10.467 1.755 11.94 10.078 17.438 20.756 16.577 9.222-.743 18.402-2.147 27.633-2.611a275.552 275.552 0 0 1 27.313-.005c10.402.51 20.8 1.476 31.141 2.723 8.31 1.002 16.19-3.6 18-11.83.912-4.149.977-8.531 1.019-12.812.089-9.114-6.287-13.975-15.15-11.784-1.437.355-2.882.684-4.307 1.082-4.808 1.34-8.824.02-12.162-3.585-4.209-4.545-5.286-10.225-5.293-16.069-.078-63.155-.065-126.31-.08-189.467 0-1.832.082-3.673-.058-5.496-.639-8.28-1.29-8.919-9.52-8.818-2.463.03-4.951.33-7.376.784-14.669 2.75-29.253 1.444-43.911-.339-8.642-1.05-17.785-2.505-24.725 6.595z"/>
  <path d="M736.054 245.998c-2.82.045-5.15.076-7.48.15-.3.01-.594.236-.888.368-2.996 13.666 7.786 29.594 22.4 33.425 14.229 3.73 24.905-3.014 34.33-12.074 7.865-7.56 15.553-15.122 26.676-17.228 18.33-3.47 35.88 3.682 40.237 21.705 3.194 13.213-.013 26.097-9.05 36.822-15.253 18.105-35.458 27.064-58.306 30.846-23.379 3.87-46.54 3.322-68.99-4.975-34.864-12.885-55.295-38.502-63.899-74.073-3.255-13.457-3.946-27.27-2.982-41.008 2.204-31.402 13.16-58.992 37.54-79.975 15.447-13.294 33.533-20.817 53.882-23.043 18.982-2.076 37.762-1.68 55.867 4.858 32.374 11.69 52.126 34.41 58.688 68.431 2.348 12.173 2.544 24.308.918 36.553-1.571 11.83-9.823 19.19-21.987 19.204-32.155.04-64.31.014-96.956.014M718.402 134.87c-24.226 9.722-40.884 27.105-50.317 51.16-8.916 22.736-9.818 46.331-5.087 70.146 6.012 30.257 22.765 52.448 51.043 65.043 17.815 7.935 36.706 9.783 56.224 8.05 15.23-1.353 29.602-4.767 42.909-12.23 11.157-6.257 21.08-13.853 25.297-26.712 4.079-12.44.675-22.278-9.428-26.339-10.615-4.266-20.03-1.433-28.383 5.859-5.624 4.91-10.917 10.255-16.882 14.704-17.75 13.242-42.67 11.162-57.278-4.637-7.425-8.031-11.083-17.58-11.821-28.664-.842-12.648 3.867-17.446 14.772-17.336 25.984.263 51.973.085 77.96.085 7.663 0 15.33.138 22.988-.041 8.85-.207 12.449-3.18 12.5-11.155.064-10.211.315-20.553-1.117-30.61-2.298-16.13-9.885-30.077-21.66-41.378-16.472-15.807-36.99-21.792-59.182-22.731-14.298-.605-28.344 1.42-42.538 6.786zM70.762 310.195C57.014 294.359 49.19 276.01 46.408 255.89c-1.729-12.502-1.163-25.338-1.376-38.028-.236-14.089 2.966-27.635 8.116-40.593 12.558-31.604 35.774-50.772 68.913-58.377 13.939-3.199 28.02-3.547 42.054-2.731 22.23 1.292 43.053 7.657 60.45 22.131 18.476 15.375 30.148 35.174 34.259 58.912 1.854 10.711 3.119 21.704 2.963 32.544-.284 19.755-3.094 39.338-11.945 57.295-14.561 29.541-38.049 47.91-70.882 52.794-12.389 1.843-25.181 2.712-37.653 1.904-27.048-1.752-51.272-10.969-70.545-31.546m-8.92-42.563c8.017 26.9 24.364 46.189 51.263 55.624 20.395 7.154 41.288 8.318 62.559 4.775 29.372-4.892 51.024-20.258 63.253-47.554 12.349-27.564 13.303-56.556 6.585-85.462-6.801-29.26-24.59-50.131-53.264-60.542-20.863-7.575-42.445-8.054-64.086-4.176-16.047 2.875-30.534 9.42-42.614 20.678-19.328 18.013-26.783 41.264-28.395 66.671-1.05 16.537-.387 33.128 4.698 49.986zM828.963 51.971c1.663 4.358 3.187 8.341 4.937 12.915 3.153-1.512 5.937-3.268 8.975-4.17 2.422-.72 5.811-1.438 7.603-.307 3.22 2.03 1.155 5.25-.186 7.941-1.375 2.76-2.67 5.56-4.225 8.814 3.938 1.413 7.637 2.362 10.935 4.08 1.697.883 3.702 3.138 3.698 4.769-.004 1.63-2.023 3.865-3.724 4.75-3.298 1.718-6.991 2.675-10.941 4.099 1.809 3.697 3.761 6.799 4.817 10.18.637 2.041.648 5.112-.505 6.598-.841 1.084-4.234.915-6.149.279-3.393-1.129-6.528-3.037-10.284-4.87-1.402 3.807-2.4 7.473-4.11 10.77-.896 1.724-2.838 3.44-4.67 4.025-3.1.989-4.228-1.61-5.097-4.096-1.186-3.398-2.46-6.766-3.884-10.663-3.729 1.787-6.978 3.724-10.485 4.874-1.896.621-5.008.685-6.151-.441-1.135-1.119-1.105-4.246-.49-6.135 1.117-3.427 3.047-6.589 4.87-10.338-3.446-1.364-6.721-2.788-10.087-3.951-2.613-.903-4.925-1.602-4.875-5.198.05-3.64 2.52-4.153 5.08-5.023 3.105-1.055 6.135-2.335 9.861-3.774-1.703-3.54-3.613-6.757-4.774-10.224-.645-1.925-.87-5.296.21-6.172 1.448-1.174 4.542-1.205 6.572-.576 3.393 1.05 6.503 3.013 10.217 4.828 1.419-3.884 2.69-7.41 3.996-10.923 1.73-4.656 4.119-5.314 8.866-2.06M817.73 74.97l-5.265-2.025-1.78-.208c6.398 7.577 2.823 11.15-3.981 12.822 2.83 2.07 6.06 3.253 6.906 5.384.83 2.086-.769 5.137-1.565 9.062 7.313-6.121 10.796-2.301 12.558 4.172 2.043-2.749 3.253-5.961 5.398-6.81 2.08-.824 5.121.78 7.657 1.3-.5-2.772-2.067-5.913-1.162-7.96.96-2.171 4.27-3.304 6.21-4.651-2.305-1.729-5.508-2.952-6.345-5.098-.811-2.08.81-5.108 1.387-7.832-8.203 2.434-8.203 2.434-12.354-4.375-2.23 2.025-4.552 4.133-7.664 6.219z"/>
  <path fill="#FFF" d="M369.872 128.978c6.714-.037 12.971-.061 19.23-.074 4.134-.01 8.27-.002 12.44-.002.668-5.257.936-10.375 2.018-15.315 3.066-13.998 12.148-22.287 25.823-25.578 15.42-3.71 30.411-3.616 44.24 5.73 9.092 6.147 11.636 14.876 10.267 25.128-.655 4.903-7.319 11.688-12.112 12.003-7.554.497-12.252 1.4-16.821-6.352-2.835-4.81-5.433-9.976-12.126-10.542-12.935-1.093-16.56 11.46-15.582 20.279.45 4.054 2.5 6.299 6.431 7.705 26.085 9.33 35.551 31.771 31.454 57.42-4.598 28.792-24.546 42.595-50.383 49.436-23.496 6.222-46.899 4.473-69.33-5.231-4.728-2.046-7.55-1.21-10.83 2.224-8.866 9.282-7.466 24.089 3.971 29.982 6.386 3.29 13.933 5.657 21.055 5.935 20.08.786 40.224-.213 60.313.426 17.048.541 33.953 2.872 48.382 13.32 12.012 8.7 18.112 20.466 18.777 35.428.858 19.322-5.38 35.614-19.958 48.216-13.64 11.792-29.98 18.224-47.513 21.91-17.808 3.743-35.854 4.846-53.912 3.839-23.07-1.287-45.51-5.434-65.324-18.626-13.137-8.747-21.678-20.47-23.206-36.345-1.364-14.165 3.801-27.283 19.468-35.602 8.342-4.429 17.722-6.895 26.615-10.294 2.037-.779 4-1.75 5.998-2.633l.013-1.963c-4.761-1.134-9.645-1.908-14.253-3.49-6.614-2.27-13.437-4.424-19.415-7.921-6.68-3.909-9.402-10.896-9.563-18.595-.101-4.804-.3-9.708.493-14.407 1.577-9.346 7.816-15.491 15.724-19.962 6.02-3.403 12.283-6.38 18.75-9.708-1.528-1.792-3.038-3.735-4.722-5.514-18.589-19.636-16.758-47.474.253-65.86 14.257-15.41 32.1-23.314 53.335-24.967m.654 188.043c-3.16-.03-6.534.648-9.444-.221-9.701-2.898-17.2 1.484-24.164 6.97-10.95 8.624-11.517 22.825-1.25 32.314 9.417 8.705 21.639 10.182 33.634 10.738 11.065.512 22.227-.126 33.296-.938 8.412-.618 16.465-3.078 23.542-8.049 12.942-9.09 11.998-29.065-2.296-35.613-6.549-3-14.146-4.435-21.392-5.013-10.25-.818-20.617-.185-31.926-.188m41.602-142.536c-6.42-11.652-16.804-17.09-29.544-16.263-19.302 1.253-31.708 16.875-29.761 35.744 2.044 19.815 20.309 32.378 40.02 27.44 19.546-4.897 29.136-26.526 19.285-46.921zM510.642 72.82c6.668-8.843 15.81-7.389 24.453-6.338 14.658 1.783 29.242 3.088 43.911.339 2.425-.455 4.913-.754 7.376-.784 8.23-.1 8.881.538 9.52 8.818.14 1.823.058 3.664.058 5.496.015 63.156.002 126.312.08 189.467.007 5.844 1.084 11.524 5.293 16.07 3.338 3.604 7.354 4.925 12.162 3.584 1.425-.398 2.87-.727 4.307-1.082 8.863-2.191 15.239 2.67 15.15 11.784-.042 4.28-.107 8.663-1.02 12.811-1.808 8.23-9.688 12.833-17.999 11.83-10.341-1.246-20.74-2.212-31.141-2.722a275.552 275.552 0 0 0-27.313.005c-9.231.464-18.411 1.868-27.633 2.611-10.678.86-19-4.637-20.756-16.577-.503-3.419-.437-7.048.096-10.467 1.196-7.677 7.596-11.57 15.374-9.768 2.083.482 4.174.933 6.242 1.47 7.595 1.976 12.8-.566 15.098-7.972 1.16-3.733 2.003-7.74 2.014-11.627.132-49.657.182-99.316-.061-148.973-.025-4.936-1.58-10.067-3.387-14.736-1.889-4.88-6.515-6.282-11.87-5.41-4.782.78-9.675 1.45-14.492 1.301-5.471-.169-8.395-4.368-8.886-9.167-.685-6.695-1.19-13.676 3.424-19.963zm208.093 61.84c13.861-5.156 27.907-7.181 42.205-6.576 22.192.94 42.71 6.924 59.181 22.73 11.776 11.302 19.363 25.25 21.66 41.378 1.433 10.058 1.182 20.4 1.117 30.61-.05 7.976-3.648 10.949-12.5 11.156-7.658.179-15.324.04-22.987.04-25.987.001-51.976.179-77.96-.084-10.905-.11-15.614 4.688-14.772 17.336.738 11.084 4.396 20.633 11.821 28.664 14.608 15.8 39.527 17.879 57.278 4.637 5.965-4.449 11.258-9.795 16.882-14.704 8.353-7.292 17.768-10.125 28.383-5.859 10.103 4.06 13.507 13.899 9.428 26.339-4.217 12.859-14.14 20.455-25.297 26.712-13.307 7.463-27.68 10.877-42.909 12.23-19.518 1.733-38.41-.115-56.224-8.05-28.278-12.595-45.031-34.786-51.043-65.043-4.731-23.815-3.829-47.41 5.087-70.145 9.433-24.056 26.09-41.439 50.65-51.372m19.773 68.357c13.972-.004 27.944.021 41.916-.026 5.524-.018 9.662-2.768 10.466-7.268 1.13-6.324.558-12.529-2.888-18.142-8.58-13.975-21.651-19.874-37.39-18.357-16.144 1.556-27.531 10.872-32.968 26.196-3.014 8.495-.934 18.64 12.386 17.622 2.48-.19 4.988-.026 8.478-.025zM61.65 267.269c-4.894-16.495-5.556-33.086-4.507-49.623 1.612-25.407 9.067-48.658 28.395-66.671 12.08-11.258 26.567-17.803 42.614-20.678 21.641-3.878 43.223-3.4 64.086 4.176 28.675 10.411 46.463 31.281 53.264 60.542 6.718 28.906 5.764 57.898-6.585 85.462-12.23 27.296-33.881 42.662-63.253 47.554-21.271 3.543-42.164 2.379-62.559-4.775-26.9-9.435-43.246-28.723-51.455-55.987m47.349-28.988c1.005 6.007 1.62 12.11 3.086 18.002 4.779 19.219 18.704 35.442 38.216 36.025 14.958.447 27.319-3.42 35.732-16.394 7.026-10.834 8.94-23.06 10.221-35.695 1.58-15.58.346-30.76-4.34-45.535-7.35-23.179-25.342-32.281-47.201-28.411-16.212 2.87-25.193 14.751-30.697 29.453-5.03 13.436-5.387 27.485-5.017 42.555zm709.125-163.3c2.717-2.097 5.039-4.205 7.27-6.23 4.15 6.809 4.15 6.809 12.353 4.375-.577 2.724-2.198 5.752-1.387 7.832.837 2.146 4.04 3.37 6.344 5.098-1.94 1.347-5.248 2.48-6.209 4.65-.905 2.048.662 5.189 1.162 7.961-2.536-.52-5.577-2.124-7.657-1.3-2.145.849-3.355 4.061-5.398 6.81-1.762-6.473-5.245-10.293-12.558-4.172.796-3.925 2.395-6.976 1.565-9.062-.847-2.13-4.076-3.314-6.906-5.384 6.804-1.671 10.38-5.245 3.981-12.822l1.78.208c1.755.675 3.51 1.35 5.66 2.036z"/>
  <path d="M371.022 317.029c10.813-.005 21.18-.638 31.43.18 7.246.578 14.843 2.013 21.392 5.013 14.294 6.548 15.238 26.523 2.296 35.613-7.077 4.971-15.13 7.431-23.542 8.049-11.069.812-22.23 1.45-33.296.938-11.995-.556-24.217-2.033-33.635-10.738-10.266-9.49-9.699-23.69 1.251-32.315 6.965-5.485 14.463-9.867 24.164-6.97 2.91.87 6.283.191 9.94.23m23.718 37.05c7.692-.071 15.385-.94 21.862-5.19 2.822-1.853 5.794-5.833 5.823-8.874.025-2.633-3.564-6.056-6.385-7.745-2.778-1.664-6.583-2.083-9.965-2.19-16.868-.531-33.745-.726-50.616-1.162-5.003-.13-12.897 5.062-14.237 9.717-1.165 4.05 1.52 9.167 7.782 11.182 7.75 2.494 15.906 4.16 24.008 4.983 6.85.696 13.872-.319 21.728-.721zm17.642-179.312c9.597 20.113.007 41.742-19.54 46.64-19.71 4.937-37.975-7.626-40.02-27.44-1.946-18.87 10.46-34.492 29.762-35.745 12.74-.826 23.125 4.611 29.798 16.545m-36.813-1.996c-8.158 4.01-11.155 10.87-10.534 19.545.6 8.376 8.638 18.455 19.639 17.797 10.208-.61 18.786-8.364 19.354-18.294.674-11.756-9.974-25.682-28.46-19.048zm362.441 30.245c-2.992 0-5.5-.165-7.98.025-13.32 1.018-15.4-9.127-12.386-17.622 5.437-15.324 16.824-24.64 32.968-26.196 15.739-1.517 28.81 4.382 37.39 18.357 3.446 5.613 4.018 11.818 2.888 18.142-.804 4.5-4.942 7.25-10.466 7.268-13.972.047-27.944.022-42.413.026m-5.061-20.435-4.186 8.021h50.21c-.3-6.201-3.442-10.222-7.77-13.557-9.518-7.335-27.574-8.51-38.254 5.536zm-623.952 55.222c-.37-14.592-.013-28.64 5.018-42.077 5.504-14.702 14.485-26.583 30.697-29.453 21.859-3.87 39.85 5.232 47.201 28.411 4.686 14.774 5.92 29.956 4.34 45.535-1.282 12.635-3.195 24.861-10.22 35.695-8.414 12.974-20.775 16.841-35.733 16.394-19.512-.583-33.437-16.806-38.216-36.025-1.465-5.892-2.081-11.995-3.087-18.48m13.006-22.063c-1.98 13.607-1.009 27.045 3.04 40.141 3.227 10.435 8.52 19.592 19.87 22.943 17.12 5.055 31.517-3.8 36.108-21.538 4.186-16.173 3.839-32.523 1.76-48.821-1.156-9.06-4.003-18.255-11.422-24.119-13.8-10.906-33.586-8.828-42.29 8.963-3.286 6.719-4.748 14.33-7.066 22.43z"/>
</svg>
