<svg version="1.1" xmlns="http://www.w3.org/2000/svg" xmlns:xlink="http://www.w3.org/1999/xlink" width="100%" viewBox="0 0 900 440" enable-background="new 0 0 900 440" xml:space="preserve">
<path fill="#FF00FF" opacity="0" stroke="none" d=" M662,441   C441.333374,441 221.166748,441 1.000089,441   C1.000059,294.333405 1.000059,147.666794 1.000030,1.000148   C300.999878,1.000098 600.999756,1.000098 900.999756,1.000049   C900.999817,147.666519 900.999817,294.333038 900.999878,440.999786   C821.500000,441 742,441 662,441  M462.976471,143.964981   C463.975708,143.975830 464.974945,143.995483 465.974182,143.996262   C484.408142,144.010406 497.402252,131.110489 496.924866,112.660286   C496.537292,97.682365 488.673492,87.188835 475.682281,80.335548   C459.965057,72.044197 443.435516,71.357880 426.573090,75.765228   C407.266479,80.811417 394.667725,92.591408 391.061920,112.748222   C390.521637,115.768425 388.856567,115.939621 386.525970,116.023087   C379.239258,116.284058 371.910156,116.242264 364.680481,117.055626   C339.744934,119.861000 318.428436,130.109390 303.299255,150.462555   C288.426086,170.471298 286.502899,192.342468 297.545654,215.003326   C298.517944,216.998581 299.727936,218.878052 301.141022,221.362518   C284.593719,229.084641 274.593689,241.303940 273.163666,259.310730   C271.770996,276.846863 276.587341,291.819000 292.759857,301.637360   C261.212219,320.061890 258.944214,346.272522 272.638214,377.168396   C195.061142,377.168396 117.798935,377.168396 40.292442,377.168396   C40.292442,379.898529 40.292442,382.138245 40.292442,384.999115   C42.687080,384.999115 44.803459,384.999115 46.919838,384.999115   C121.584785,384.999146 196.249786,385.035919 270.914551,384.922028   C276.272797,384.913849 280.985870,385.124634 284.621246,389.887726   C286.264008,392.040070 288.967896,393.401917 291.243591,395.048798   C311.383362,409.623688 334.640076,415.348846 358.766998,416.722504   C378.584869,417.850891 398.626526,418.218811 418.312988,413.995422   C437.031921,409.979523 455.075226,404.382660 470.486450,392.305420   C475.283875,388.545837 479.567322,384.746826 486.929626,384.766479   C609.259277,385.093079 731.590088,384.999146 853.920593,384.999115   C856.175659,384.999115 858.430725,384.999115 860.600281,384.999115   C860.600281,381.904724 860.600281,379.663666 860.600281,376.693604   C735.901245,376.693604 611.594482,376.693604 488.194855,376.693604   C491.543457,367.899506 495.716431,359.674377 497.703644,350.951324   C499.682587,342.264740 499.467682,333.078369 500.183075,324.490936   C504.683929,329.559998 509.541504,335.759918 517.490112,335.879089   C529.149597,336.053833 540.823364,335.039948 552.495483,334.676666   C561.956787,334.382172 571.442871,333.851410 580.885193,334.234344   C593.427856,334.743011 605.934204,336.707672 618.464722,336.793823   C629.526917,336.869812 639.951416,330.609924 643.251648,318.399323   C644.279785,314.595520 645.506958,310.736877 645.739929,306.849243   C646.240417,298.497742 645.301331,290.264801 639.839478,283.401428   C633.088501,274.918060 623.652466,275.107422 614.297546,276.523041   C610.448914,277.105408 609.031677,276.489410 608.896179,272.652588   C608.791687,269.694458 608.045471,266.750061 608.039978,263.798737   C607.976318,229.632965 607.999756,195.467026 607.999451,161.301147   C607.999146,131.635162 608.247070,101.966125 607.882446,72.304611   C607.721985,59.250278 600.988708,53.589001 589.253723,53.100895   C584.828796,52.916843 580.204651,53.198116 575.938354,54.300636   C560.517578,58.285774 545.309753,54.764164 530.055115,53.479660   C520.739807,52.695274 512.314758,54.349918 505.058685,60.460361   C498.478943,66.001228 495.549347,73.294113 494.616882,81.718582   C492.465485,101.155136 501.392365,117.270531 524.515442,114.983116   C527.231079,114.714470 531.585693,113.578384 532.355469,114.731079   C533.923889,117.079605 533.573730,120.714127 533.990723,123.821945   C534.056580,124.313133 534.000977,124.820686 534.000977,125.320671   C534.001099,172.152924 534.002136,218.985184 533.996887,265.817444   C533.996704,267.149414 534.088928,268.508026 533.869507,269.808929   C532.597229,277.352814 532.602112,277.202545 524.950623,275.511414   C515.022095,273.317047 501.551819,277.005859 497.285461,288.610443   C495.367035,293.828613 494.523041,299.441772 493.171356,304.958008   C488.359894,295.967163 481.533813,288.889343 472.958252,283.486237   C457.490356,273.740540 440.291443,270.270844 422.343536,270.055176   C402.846802,269.820831 383.337646,270.302185 363.849976,269.820679   C357.906830,269.673798 351.795105,267.972229 346.169769,265.881683   C341.308197,264.074951 340.466614,259.903351 343.015869,256.266022   C360.444641,262.458588 378.072540,265.964264 396.879242,264.228912   C414.718323,262.582916 431.556458,258.549164 446.468475,248.665390   C473.533234,230.726715 481.395691,206.069519 477.168701,175.956436   C475.443451,163.665558 469.942291,153.411255 461.803619,144.236633   C461.803619,144.236633 462.076599,143.904190 462.976471,143.964981  M736.545898,245.997894   C768.700500,245.997787 800.855103,246.023483 833.009644,245.984314   C845.174316,245.969498 853.425720,238.609222 854.996582,226.779999   C856.622559,214.535324 856.427002,202.399811 854.079102,190.227295   C847.516785,156.205582 827.765259,133.486115 795.391296,121.796066   C777.285767,115.258293 758.506287,114.862282 739.524475,116.938370   C719.174561,119.164085 701.089111,126.687347 685.642822,139.981232   C661.262329,160.964355 650.306152,188.553818 648.102478,219.956207   C647.138428,233.694397 647.829468,247.507492 651.084290,260.963928   C659.688110,296.534729 680.119446,322.152039 714.983826,335.036926   C737.433289,343.333618 760.594177,343.881714 783.972717,340.011780   C806.820862,336.229645 827.025513,327.270630 842.279907,309.165741   C851.316284,298.440857 854.522644,285.556702 851.328735,272.343842   C846.972229,254.321472 829.422668,247.168976 811.091614,250.639038   C799.968567,252.744614 792.281311,260.306641 784.415771,267.867340   C774.991272,276.926605 764.314636,283.671204 750.085632,279.941132   C735.472168,276.110291 724.689758,260.181946 727.683594,246.510605   C727.980469,246.384354 728.274109,246.157349 728.574646,246.147842   C730.903198,246.074188 733.233154,246.042542 736.545898,245.997894  M71.004738,310.456512   C90.034775,330.772491 114.258957,339.989380 141.307480,341.741455   C153.778564,342.549286 166.571030,341.679779 178.959869,339.837036   C211.792953,334.953278 235.280960,316.583954 249.841827,287.042938   C258.692932,269.085907 261.502747,249.502747 261.786713,229.748169   C261.942535,218.907730 260.678436,207.915192 258.823547,197.204422   C254.712585,173.466232 243.041306,153.666641 224.564331,138.292496   C207.168167,123.817696 186.345718,117.452644 164.115311,116.160896   C150.081100,115.345428 135.999939,115.693130 122.061333,118.891785   C88.921997,126.496643 65.705826,145.665283 53.147610,177.268738   C47.998241,190.227432 44.795769,203.773270 45.032185,217.862091   C45.245129,230.552170 44.678967,243.387955 46.407684,255.889679   C49.189926,276.010223 57.013630,294.359161 71.004738,310.456512  M828.824341,51.597115   C824.215820,48.717915 821.827026,49.376141 820.096558,54.032227   C818.790955,57.545303 817.520020,61.071304 816.100769,64.955276   C812.387390,63.139896 809.277039,61.177528 805.884399,60.126659   C803.853638,59.497650 800.759888,59.528751 799.311768,60.703140   C798.231445,61.579296 798.457092,64.950310 799.101685,66.875298   C800.262573,70.342392 802.173401,73.558395 803.876465,77.098694   C800.149780,78.538063 797.120361,79.818245 794.014526,80.873398   C791.454651,81.743095 788.984985,82.255760 788.934875,85.895744   C788.885376,89.492401 791.197449,90.191139 793.809570,91.093857   C797.175537,92.257103 800.451355,93.681267 803.896912,95.044838   C802.074463,98.794220 800.144226,101.956123 799.027527,105.383125   C798.411926,107.272034 798.381836,110.399063 799.516968,111.517525   C800.660095,112.643845 803.772461,112.580154 805.668274,111.958748   C809.175354,110.809181 812.424438,108.872185 816.152771,107.084938   C817.577637,110.981972 818.851135,114.349701 820.037415,117.747871   C820.905579,120.234589 822.034302,122.832855 825.133911,121.844086   C826.965759,121.259766 828.907837,119.543167 829.803223,117.818192   C831.513977,114.521988 832.512146,110.855949 833.914185,107.049873   C837.670166,108.882080 840.804504,110.790283 844.198120,111.918655   C846.112549,112.555214 849.505737,112.724075 850.347046,111.640045   C851.500305,110.154068 851.489075,107.082985 850.851929,105.042465   C849.796082,101.660942 847.843506,98.559395 846.034851,94.861794   C849.984802,93.438004 853.678467,92.480652 856.976318,90.763168   C858.676697,89.877640 860.695557,87.642990 860.699890,86.012909   C860.704224,84.382416 858.698792,82.126717 857.002441,81.243462   C853.703857,79.525978 850.005066,78.576958 846.067200,77.164345   C847.622803,73.909317 848.917419,71.109734 850.292053,68.349998   C851.632629,65.658722 853.697205,62.439327 850.478455,60.408726   C848.685974,59.277889 845.297241,59.996872 842.875427,60.715771   C839.837280,61.617596 837.052795,63.373825 833.899719,64.885544   C832.149841,60.311996 830.625854,56.328842 828.824341,51.597115  z"/>
<path fill="#000000" opacity="1" stroke="none" d=" M461.504150,144.545395   C469.942291,153.411255 475.443451,163.665558 477.168701,175.956436   C481.395691,206.069519 473.533234,230.726715 446.468475,248.665390   C431.556458,258.549164 414.718323,262.582916 396.879242,264.228912   C378.072540,265.964264 360.444641,262.458588 343.015289,256.270020   C340.466614,259.903351 341.308197,264.074951 346.169769,265.881683   C351.795105,267.972229 357.906830,269.673798 363.849976,269.820679   C383.337646,270.302185 402.846802,269.820831 422.343536,270.055176   C440.291443,270.270844 457.490356,273.740540 472.958252,283.486237   C481.533813,288.889343 488.359894,295.967163 493.171356,304.958008   C494.523041,299.441772 495.367035,293.828613 497.285461,288.610443   C501.551819,277.005859 515.022095,273.317047 524.950623,275.511414   C532.602112,277.202545 532.597229,277.352814 533.869507,269.808929   C534.088928,268.508026 533.996704,267.149414 533.996887,265.817444   C534.002136,218.985184 534.001099,172.152924 534.000977,125.320671   C534.000977,124.820686 534.056580,124.313133 533.990723,123.821945   C533.573730,120.714127 533.923889,117.079605 532.355469,114.731079   C531.585693,113.578384 527.231079,114.714470 524.515442,114.983116   C501.392365,117.270531 492.465485,101.155136 494.616882,81.718582   C495.549347,73.294113 498.478943,66.001228 505.058685,60.460361   C512.314758,54.349918 520.739807,52.695274 530.055115,53.479660   C545.309753,54.764164 560.517578,58.285774 575.938354,54.300636   C580.204651,53.198116 584.828796,52.916843 589.253723,53.100895   C600.988708,53.589001 607.721985,59.250278 607.882446,72.304611   C608.247070,101.966125 607.999146,131.635162 607.999451,161.301147   C607.999756,195.467026 607.976318,229.632965 608.039978,263.798737   C608.045471,266.750061 608.791687,269.694458 608.896179,272.652588   C609.031677,276.489410 610.448914,277.105408 614.297546,276.523041   C623.652466,275.107422 633.088501,274.918060 639.839478,283.401428   C645.301331,290.264801 646.240417,298.497742 645.739929,306.849243   C645.506958,310.736877 644.279785,314.595520 643.251648,318.399323   C639.951416,330.609924 629.526917,336.869812 618.464722,336.793823   C605.934204,336.707672 593.427856,334.743011 580.885193,334.234344   C571.442871,333.851410 561.956787,334.382172 552.495483,334.676666   C540.823364,335.039948 529.149597,336.053833 517.490112,335.879089   C509.541504,335.759918 504.683929,329.559998 500.183075,324.490936   C499.467682,333.078369 499.682587,342.264740 497.703644,350.951324   C495.716431,359.674377 491.543457,367.899506 488.194855,376.693604   C611.594482,376.693604 735.901245,376.693604 860.600281,376.693604   C860.600281,379.663666 860.600281,381.904724 860.600281,384.999115   C858.430725,384.999115 856.175659,384.999115 853.920593,384.999115   C731.590088,384.999146 609.259277,385.093079 486.929626,384.766479   C479.567322,384.746826 475.283875,388.545837 470.486450,392.305420   C455.075226,404.382660 437.031921,409.979523 418.312988,413.995422   C398.626526,418.218811 378.584869,417.850891 358.766998,416.722504   C334.640076,415.348846 311.383362,409.623688 291.243591,395.048798   C288.967896,393.401917 286.264008,392.040070 284.621246,389.887726   C280.985870,385.124634 276.272797,384.913849 270.914551,384.922028   C196.249786,385.035919 121.584785,384.999146 46.919838,384.999115   C44.803459,384.999115 42.687080,384.999115 40.292442,384.999115   C40.292442,382.138245 40.292442,379.898529 40.292442,377.168396   C117.798935,377.168396 195.061142,377.168396 272.638214,377.168396   C258.944214,346.272522 261.212219,320.061890 292.759857,301.637360   C276.587341,291.819000 271.770996,276.846863 273.163666,259.310730   C274.593689,241.303940 284.593719,229.084641 301.141022,221.362518   C299.727936,218.878052 298.517944,216.998581 297.545654,215.003326   C286.502899,192.342468 288.426086,170.471298 303.299255,150.462555   C318.428436,130.109390 339.744934,119.861000 364.680481,117.055626   C371.910156,116.242264 379.239258,116.284058 386.525970,116.023087   C388.856567,115.939621 390.521637,115.768425 391.061920,112.748222   C394.667725,92.591408 407.266479,80.811417 426.573090,75.765228   C443.435516,71.357880 459.965057,72.044197 475.682281,80.335548   C488.673492,87.188835 496.537292,97.682365 496.924866,112.660286   C497.402252,131.110489 484.408142,144.010406 465.974182,143.996262   C464.974945,143.995483 463.975708,143.975830 462.391479,143.713104   C461.420563,143.431381 461.034607,143.401505 460.648651,143.371628   C460.933807,143.762878 461.218994,144.154144 461.504150,144.545395  M369.415192,128.995865   C348.636902,130.631317 330.794098,138.535385 316.537079,153.944748   C299.525726,172.331055 297.695221,200.168823 316.283936,219.805313   C317.967987,221.584274 319.478485,223.527496 321.005676,225.319427   C314.538574,228.646957 308.276917,231.623978 302.256195,235.027283   C294.347565,239.497772 288.109344,245.643402 286.532135,254.988739   C285.739014,259.687897 285.937775,264.591888 286.038513,269.395874   C286.199890,277.094604 288.922150,284.082245 295.602234,287.990601   C301.579651,291.487915 308.403168,293.642944 315.017242,295.912659   C319.624634,297.493774 324.508972,298.267700 329.269562,299.402222   C329.265411,300.056610 329.261261,300.710999 329.257080,301.365417   C327.259735,302.247925 325.296234,303.219086 323.259125,303.997650   C314.365723,307.396667 304.985504,309.863129 296.644257,314.291992   C280.977417,322.610504 275.811523,335.729004 277.175659,349.894318   C278.704468,365.769684 287.244812,377.492279 300.381775,386.238586   C320.196503,399.430908 342.635895,403.577698 365.705933,404.864594   C383.764435,405.871979 401.809601,404.769257 419.618164,401.025757   C437.151337,397.340088 453.490204,390.907928 467.131073,379.115997   C481.708801,366.514221 487.947296,350.222321 487.088715,330.900208   C486.423889,315.938293 480.324188,304.171082 468.311798,295.472382   C453.882935,285.023743 436.977966,282.693329 419.930176,282.151581   C399.841003,281.513153 379.696075,282.511627 359.617279,281.726379   C352.495300,281.447845 344.947906,279.081238 338.561951,275.790771   C327.125031,269.897675 325.724640,255.090759 334.591675,245.809189   C337.871643,242.375885 340.693237,241.539474 345.421021,243.584747   C367.852203,253.288589 391.255463,255.037567 414.751434,248.816223   C440.587708,241.975220 460.535706,228.171509 465.134399,199.379959   C469.231171,173.731186 459.764587,151.290527 433.680084,141.960205   C429.748779,140.554001 427.698486,138.309464 427.249084,134.254700   C426.271606,125.435532 429.895569,112.883194 442.831421,113.976479   C449.524078,114.542122 452.121704,119.708275 454.956665,124.517921   C459.526093,132.270157 464.224426,131.366882 471.778229,130.870422   C476.571472,130.555389 483.235077,123.769928 483.890015,118.866951   C485.259338,108.614952 482.715240,99.885696 473.622223,93.739578   C459.794403,84.393105 444.802734,84.298218 429.382538,88.009224   C415.708130,91.300095 406.625519,99.589180 403.560150,113.586990   C402.478333,118.526932 402.210266,123.645073 401.542725,128.901978   C397.371429,128.901978 393.236298,128.894867 389.101166,128.903641   C382.843445,128.916916 376.585754,128.941269 369.415192,128.995865  M510.370483,73.076660   C506.028198,79.106522 506.532715,86.088081 507.217743,92.783333   C507.708801,97.582321 510.632751,101.781082 516.103516,101.950287   C520.920959,102.099281 525.813904,101.429657 530.596558,100.649757   C535.951294,99.776566 540.577271,101.178619 542.465698,106.059357   C544.272156,110.728012 545.828430,115.859238 545.852539,120.795197   C546.095764,170.451981 546.045532,220.110565 545.913574,269.768188   C545.903259,273.654388 545.059143,277.662048 543.900391,281.395294   C541.601990,288.800537 536.397339,291.343231 528.801575,289.367645   C526.733521,288.829742 524.642700,288.379272 522.560425,287.896729   C514.782410,286.094299 508.382385,289.987885 507.185638,297.664978   C506.652649,301.084320 506.587128,304.713348 507.089813,308.132477   C508.845245,320.072113 517.167664,325.569580 527.845581,324.708954   C537.067993,323.965637 546.247925,322.561890 555.479187,322.097809   C564.563599,321.641144 573.706238,321.646240 582.791687,322.092529   C593.193726,322.603424 603.591553,323.569122 613.933472,324.815948   C622.243774,325.817780 630.123779,321.215118 631.932861,312.985321   C632.844604,308.837311 632.910095,304.454559 632.951965,300.174011   C633.040955,291.060242 626.664612,286.198547 617.801819,288.389587   C616.364746,288.744843 614.920349,289.074371 613.494934,289.471924   C608.687073,290.812805 604.671082,289.491791 601.333435,285.887482   C597.124329,281.342072 596.046997,275.661682 596.039795,269.818481   C595.962219,206.662888 595.974731,143.507172 595.960327,80.351479   C595.959900,78.518700 596.042358,76.677567 595.901733,74.854561   C595.263062,66.575493 594.611755,65.936371 586.382080,66.036636   C583.919067,66.066643 581.430786,66.366302 579.006226,66.820770   C564.336975,69.570496 549.753479,68.264671 535.094788,66.482033   C526.452820,65.431084 517.310486,63.976891 510.370483,73.076660  z"/>
<path fill="#000000" opacity="1" stroke="none" d=" M736.054260,245.997894   C733.233154,246.042542 730.903198,246.074188 728.574646,246.147842   C728.274109,246.157349 727.980469,246.384354 727.686096,246.516449   C724.689758,260.181946 735.472168,276.110291 750.085632,279.941132   C764.314636,283.671204 774.991272,276.926605 784.415771,267.867340   C792.281311,260.306641 799.968567,252.744614 811.091614,250.639038   C829.422668,247.168976 846.972229,254.321472 851.328735,272.343842   C854.522644,285.556702 851.316284,298.440857 842.279907,309.165741   C827.025513,327.270630 806.820862,336.229645 783.972717,340.011780   C760.594177,343.881714 737.433289,343.333618 714.983826,335.036926   C680.119446,322.152039 659.688110,296.534729 651.084290,260.963928   C647.829468,247.507492 647.138428,233.694397 648.102478,219.956207   C650.306152,188.553818 661.262329,160.964355 685.642822,139.981232   C701.089111,126.687347 719.174561,119.164085 739.524475,116.938370   C758.506287,114.862282 777.285767,115.258293 795.391296,121.796066   C827.765259,133.486115 847.516785,156.205582 854.079102,190.227295   C856.427002,202.399811 856.622559,214.535324 854.996582,226.779999   C853.425720,238.609222 845.174316,245.969498 833.009644,245.984314   C800.855103,246.023483 768.700500,245.997787 736.054260,245.997894  M718.402161,134.870041   C694.175720,144.592133 677.518311,161.974548 668.084656,186.030792   C659.169067,208.766174 658.266785,232.361237 662.998230,256.176086   C669.009705,286.433197 685.762878,308.623871 714.040710,321.218811   C731.855652,329.153656 750.747131,331.001709 770.264954,329.268341   C785.494812,327.915771 799.867004,324.501770 813.173584,317.038971   C824.330811,310.781677 834.254089,303.185699 838.470520,290.326996   C842.549744,277.886993 839.145996,268.048553 829.042908,263.988068   C818.427856,259.721863 809.013184,262.554932 800.660156,269.846924   C795.036499,274.756165 789.742859,280.102081 783.778320,284.551361   C766.027222,297.792999 741.107727,295.713409 726.500000,279.913513   C719.075317,271.882812 715.416748,262.333588 714.678955,251.249664   C713.837036,238.601822 718.546387,233.803986 729.450867,233.914108   C755.435303,234.176544 781.424194,233.999130 807.411255,233.998642   C815.074097,233.998489 822.740234,234.136658 830.398926,233.957550   C839.249817,233.750519 842.847900,230.777664 842.898376,222.802948   C842.962952,212.591995 843.214050,202.249557 841.781555,192.192123   C839.484253,176.063217 831.896912,162.115799 820.121094,150.814560   C803.650269,135.007721 783.132141,129.023193 760.940063,128.083801   C746.642029,127.478577 732.596008,129.504257 718.402161,134.870041  z"/>
<path fill="#000000" opacity="1" stroke="none" d=" M70.761612,310.195038   C57.013630,294.359161 49.189926,276.010223 46.407684,255.889679   C44.678967,243.387955 45.245129,230.552170 45.032185,217.862091   C44.795769,203.773270 47.998241,190.227432 53.147610,177.268738   C65.705826,145.665283 88.921997,126.496643 122.061333,118.891785   C135.999939,115.693130 150.081100,115.345428 164.115311,116.160896   C186.345718,117.452644 207.168167,123.817696 224.564331,138.292496   C243.041306,153.666641 254.712585,173.466232 258.823547,197.204422   C260.678436,207.915192 261.942535,218.907730 261.786713,229.748169   C261.502747,249.502747 258.692932,269.085907 249.841827,287.042938   C235.280960,316.583954 211.792953,334.953278 178.959869,339.837036   C166.571030,341.679779 153.778564,342.549286 141.307480,341.741455   C114.258957,339.989380 90.034775,330.772491 70.761612,310.195038  M61.841480,267.631744   C69.859337,294.532715 86.205826,313.820831 113.105225,323.256012   C133.500275,330.409790 154.392532,331.573608 175.663834,328.030762   C205.036011,323.138611 226.687851,307.772827 238.916809,280.476715   C251.265579,252.913162 252.220230,223.921249 245.501709,195.015259   C238.700684,165.754242 220.912598,144.884003 192.238083,134.472672   C171.374969,126.897552 149.793472,126.419067 128.151505,130.296600   C112.104630,133.171677 97.617645,139.717178 85.538177,150.974503   C66.209511,168.987640 58.754906,192.238968 57.143005,217.646179   C56.093857,234.183167 56.756336,250.774109 61.841480,267.631744  z"/>
<path fill="#000000" opacity="1" stroke="none" d=" M828.963135,51.971401   C830.625854,56.328842 832.149841,60.311996 833.899719,64.885544   C837.052795,63.373825 839.837280,61.617596 842.875427,60.715771   C845.297241,59.996872 848.685974,59.277889 850.478455,60.408726   C853.697205,62.439327 851.632629,65.658722 850.292053,68.349998   C848.917419,71.109734 847.622803,73.909317 846.067200,77.164345   C850.005066,78.576958 853.703857,79.525978 857.002441,81.243462   C858.698792,82.126717 860.704224,84.382416 860.699890,86.012909   C860.695557,87.642990 858.676697,89.877640 856.976318,90.763168   C853.678467,92.480652 849.984802,93.438004 846.034851,94.861794   C847.843506,98.559395 849.796082,101.660942 850.851929,105.042465   C851.489075,107.082985 851.500305,110.154068 850.347046,111.640045   C849.505737,112.724075 846.112549,112.555214 844.198120,111.918655   C840.804504,110.790283 837.670166,108.882080 833.914185,107.049873   C832.512146,110.855949 831.513977,114.521988 829.803223,117.818192   C828.907837,119.543167 826.965759,121.259766 825.133911,121.844086   C822.034302,122.832855 820.905579,120.234589 820.037415,117.747871   C818.851135,114.349701 817.577637,110.981972 816.152771,107.084938   C812.424438,108.872185 809.175354,110.809181 805.668274,111.958748   C803.772461,112.580154 800.660095,112.643845 799.516968,111.517525   C798.381836,110.399063 798.411926,107.272034 799.027527,105.383125   C800.144226,101.956123 802.074463,98.794220 803.896912,95.044838   C800.451355,93.681267 797.175537,92.257103 793.809570,91.093857   C791.197449,90.191139 788.885376,89.492401 788.934875,85.895744   C788.984985,82.255760 791.454651,81.743095 794.014526,80.873398   C797.120361,79.818245 800.149780,78.538063 803.876465,77.098694   C802.173401,73.558395 800.262573,70.342392 799.101685,66.875298   C798.457092,64.950310 798.231445,61.579296 799.311768,60.703140   C800.759888,59.528751 803.853638,59.497650 805.884399,60.126659   C809.277039,61.177528 812.387390,63.139896 816.100769,64.955276   C817.520020,61.071304 818.790955,57.545303 820.096558,54.032227   C821.827026,49.376141 824.215820,48.717915 828.963135,51.971401  M817.729187,74.969917   C815.974182,74.294838 814.219238,73.619759 812.464233,72.944679   C811.870850,72.875557 811.277405,72.806435 810.683960,72.737305   C817.082214,80.313942 813.506836,83.887703 806.702576,85.559410   C809.532959,87.628578 812.762390,88.812393 813.609497,90.943260   C814.438660,93.028984 812.840271,96.079712 812.044250,100.004906   C819.356995,93.883728 822.839844,97.703857 824.602417,104.176521   C826.644958,101.428108 827.854614,98.215866 829.999939,97.366257   C832.079834,96.542526 835.121216,98.146461 837.656555,98.667000   C837.156860,95.894753 835.589539,92.753769 836.495117,90.706841   C837.455750,88.535538 840.764587,87.403130 842.704102,86.055840   C840.400391,84.327156 837.196960,83.104027 836.360046,80.958023   C835.548950,78.878151 837.170105,75.849731 837.746704,73.126030   C829.543640,75.559639 829.543640,75.559639 825.393311,68.750725   C823.162659,70.775856 820.840576,72.883957 817.729187,74.969917  z"/>
<path fill="#FFFFFF" opacity="1" stroke="none" d=" M369.871613,128.978394   C376.585754,128.941269 382.843445,128.916916 389.101166,128.903641   C393.236298,128.894867 397.371429,128.901978 401.542725,128.901978   C402.210266,123.645073 402.478333,118.526932 403.560150,113.586990   C406.625519,99.589180 415.708130,91.300095 429.382538,88.009224   C444.802734,84.298218 459.794403,84.393105 473.622223,93.739578   C482.715240,99.885696 485.259338,108.614952 483.890015,118.866951   C483.235077,123.769928 476.571472,130.555389 471.778229,130.870422   C464.224426,131.366882 459.526093,132.270157 454.956665,124.517921   C452.121704,119.708275 449.524078,114.542122 442.831421,113.976479   C429.895569,112.883194 426.271606,125.435532 427.249084,134.254700   C427.698486,138.309464 429.748779,140.554001 433.680084,141.960205   C459.764587,151.290527 469.231171,173.731186 465.134399,199.379959   C460.535706,228.171509 440.587708,241.975220 414.751434,248.816223   C391.255463,255.037567 367.852203,253.288589 345.421021,243.584747   C340.693237,241.539474 337.871643,242.375885 334.591675,245.809189   C325.724640,255.090759 327.125031,269.897675 338.561951,275.790771   C344.947906,279.081238 352.495300,281.447845 359.617279,281.726379   C379.696075,282.511627 399.841003,281.513153 419.930176,282.151581   C436.977966,282.693329 453.882935,285.023743 468.311798,295.472382   C480.324188,304.171082 486.423889,315.938293 487.088715,330.900208   C487.947296,350.222321 481.708801,366.514221 467.131073,379.115997   C453.490204,390.907928 437.151337,397.340088 419.618164,401.025757   C401.809601,404.769257 383.764435,405.871979 365.705933,404.864594   C342.635895,403.577698 320.196503,399.430908 300.381775,386.238586   C287.244812,377.492279 278.704468,365.769684 277.175659,349.894318   C275.811523,335.729004 280.977417,322.610504 296.644257,314.291992   C304.985504,309.863129 314.365723,307.396667 323.259125,303.997650   C325.296234,303.219086 327.259735,302.247925 329.257080,301.365417   C329.261261,300.710999 329.265411,300.056610 329.269562,299.402222   C324.508972,298.267700 319.624634,297.493774 315.017242,295.912659   C308.403168,293.642944 301.579651,291.487915 295.602234,287.990601   C288.922150,284.082245 286.199890,277.094604 286.038513,269.395874   C285.937775,264.591888 285.739014,259.687897 286.532135,254.988739   C288.109344,245.643402 294.347565,239.497772 302.256195,235.027283   C308.276917,231.623978 314.538574,228.646957 321.005676,225.319427   C319.478485,223.527496 317.967987,221.584274 316.283936,219.805313   C297.695221,200.168823 299.525726,172.331055 316.537079,153.944748   C330.794098,138.535385 348.636902,130.631317 369.871613,128.978394  M370.526276,317.020691   C367.365234,316.990326 363.992279,317.669250 361.081848,316.799896   C351.380676,313.902039 343.882874,318.283997 336.918396,323.769348   C325.968109,332.394073 325.400604,346.594818 335.667389,356.084320   C345.084869,364.788788 357.306641,366.265869 369.302032,366.821716   C380.367188,367.334473 391.528992,366.696014 402.598206,365.883514   C411.010284,365.266052 419.063049,362.806213 426.139984,357.835449   C439.081512,348.745483 438.137543,328.770142 423.843750,322.222046   C417.295319,319.222168 409.698395,317.786804 402.451965,317.208710   C392.201385,316.390961 381.835052,317.023621 370.526276,317.020691  M412.127502,174.484833   C405.708679,162.833435 395.324371,157.395737 382.584229,158.222458   C363.281525,159.474991 350.876373,175.097183 352.822937,193.966354   C354.867004,213.780579 373.131927,226.344284 392.842651,221.406097   C412.389282,216.509048 421.978729,194.880478 412.127502,174.484833  z"/>
<path fill="#FFFFFF" opacity="1" stroke="none" d=" M510.642487,72.819962   C517.310486,63.976891 526.452820,65.431084 535.094788,66.482033   C549.753479,68.264671 564.336975,69.570496 579.006226,66.820770   C581.430786,66.366302 583.919067,66.066643 586.382080,66.036636   C594.611755,65.936371 595.263062,66.575493 595.901733,74.854561   C596.042358,76.677567 595.959900,78.518700 595.960327,80.351479   C595.974731,143.507172 595.962219,206.662888 596.039795,269.818481   C596.046997,275.661682 597.124329,281.342072 601.333435,285.887482   C604.671082,289.491791 608.687073,290.812805 613.494934,289.471924   C614.920349,289.074371 616.364746,288.744843 617.801819,288.389587   C626.664612,286.198547 633.040955,291.060242 632.951965,300.174011   C632.910095,304.454559 632.844604,308.837311 631.932861,312.985321   C630.123779,321.215118 622.243774,325.817780 613.933472,324.815948   C603.591553,323.569122 593.193726,322.603424 582.791687,322.092529   C573.706238,321.646240 564.563599,321.641144 555.479187,322.097809   C546.247925,322.561890 537.067993,323.965637 527.845581,324.708954   C517.167664,325.569580 508.845245,320.072113 507.089813,308.132477   C506.587128,304.713348 506.652649,301.084320 507.185638,297.664978   C508.382385,289.987885 514.782410,286.094299 522.560425,287.896729   C524.642700,288.379272 526.733521,288.829742 528.801575,289.367645   C536.397339,291.343231 541.601990,288.800537 543.900391,281.395294   C545.059143,277.662048 545.903259,273.654388 545.913574,269.768188   C546.045532,220.110565 546.095764,170.451981 545.852539,120.795197   C545.828430,115.859238 544.272156,110.728012 542.465698,106.059357   C540.577271,101.178619 535.951294,99.776566 530.596558,100.649757   C525.813904,101.429657 520.920959,102.099281 516.103516,101.950287   C510.632751,101.781082 507.708801,97.582321 507.217743,92.783333   C506.532715,86.088081 506.028198,79.106522 510.642487,72.819962  z"/>
<path fill="#FFFFFF" opacity="1" stroke="none" d=" M718.734924,134.659088   C732.596008,129.504257 746.642029,127.478577 760.940063,128.083801   C783.132141,129.023193 803.650269,135.007721 820.121094,150.814560   C831.896912,162.115799 839.484253,176.063217 841.781555,192.192123   C843.214050,202.249557 842.962952,212.591995 842.898376,222.802948   C842.847900,230.777664 839.249817,233.750519 830.398926,233.957550   C822.740234,234.136658 815.074097,233.998489 807.411255,233.998642   C781.424194,233.999130 755.435303,234.176544 729.450867,233.914108   C718.546387,233.803986 713.837036,238.601822 714.678955,251.249664   C715.416748,262.333588 719.075317,271.882812 726.500000,279.913513   C741.107727,295.713409 766.027222,297.792999 783.778320,284.551361   C789.742859,280.102081 795.036499,274.756165 800.660156,269.846924   C809.013184,262.554932 818.427856,259.721863 829.042908,263.988068   C839.145996,268.048553 842.549744,277.886993 838.470520,290.326996   C834.254089,303.185699 824.330811,310.781677 813.173584,317.038971   C799.867004,324.501770 785.494812,327.915771 770.264954,329.268341   C750.747131,331.001709 731.855652,329.153656 714.040710,321.218811   C685.762878,308.623871 669.009705,286.433197 662.998230,256.176086   C658.266785,232.361237 659.169067,208.766174 668.084656,186.030792   C677.518311,161.974548 694.175720,144.592133 718.734924,134.659088  M738.508240,203.016281   C752.480164,203.012329 766.452209,203.037125 780.423950,202.990158   C785.947815,202.971603 790.086487,200.222046 790.890198,195.721603   C792.019653,189.398285 791.448303,183.193268 788.001770,177.579895   C779.421265,163.604980 766.350586,157.706406 750.612244,159.223129   C734.468445,160.778931 723.080933,170.095413 717.644165,185.418839   C714.630127,193.913864 716.710388,204.058899 730.030273,203.040604   C732.510681,202.850967 735.018188,203.015289 738.508240,203.016281  z"/>
<path fill="#FFFFFF" opacity="1" stroke="none" d=" M61.649956,267.268921   C56.756336,250.774109 56.093857,234.183167 57.143005,217.646179   C58.754906,192.238968 66.209511,168.987640 85.538177,150.974503   C97.617645,139.717178 112.104630,133.171677 128.151505,130.296600   C149.793472,126.419067 171.374969,126.897552 192.238083,134.472672   C220.912598,144.884003 238.700684,165.754242 245.501709,195.015259   C252.220230,223.921249 251.265579,252.913162 238.916809,280.476715   C226.687851,307.772827 205.036011,323.138611 175.663834,328.030762   C154.392532,331.573608 133.500275,330.409790 113.105225,323.256012   C86.205826,313.820831 69.859337,294.532715 61.649956,267.268921  M108.998978,238.280899   C110.003761,244.287628 110.619553,250.391098 112.084816,256.283325   C116.864021,275.501770 130.788605,291.724884 150.300766,292.308289   C165.259125,292.755493 177.619644,288.887573 186.033401,275.913605   C193.058853,265.080414 194.972290,252.854141 196.254227,240.218887   C197.834824,224.639542 196.599899,209.458237 191.914261,194.684143   C184.563065,171.505447 166.572006,162.402908 144.712570,166.272919   C128.501038,169.143021 119.519997,181.023956 114.015701,195.725677   C108.985069,209.162262 108.628662,223.211090 108.998978,238.280899  z"/>
<path fill="#FFFFFF" opacity="1" stroke="none" d=" M818.123901,74.980988   C820.840576,72.883957 823.162659,70.775856 825.393311,68.750725   C829.543640,75.559639 829.543640,75.559639 837.746704,73.126030   C837.170105,75.849731 835.548950,78.878151 836.360046,80.958023   C837.196960,83.104027 840.400391,84.327156 842.704102,86.055840   C840.764587,87.403130 837.455750,88.535538 836.495117,90.706841   C835.589539,92.753769 837.156860,95.894753 837.656555,98.667000   C835.121216,98.146461 832.079834,96.542526 829.999939,97.366257   C827.854614,98.215866 826.644958,101.428108 824.602417,104.176521   C822.839844,97.703857 819.356995,93.883728 812.044250,100.004906   C812.840271,96.079712 814.438660,93.028984 813.609497,90.943260   C812.762390,88.812393 809.532959,87.628578 806.702576,85.559410   C813.506836,83.887703 817.082214,80.313942 810.683960,72.737305   C811.277405,72.806435 811.870850,72.875557 812.464233,72.944679   C814.219238,73.619759 815.974182,74.294838 818.123901,74.980988  z"/>
<path fill="#000000" opacity="1" stroke="none" d=" M371.022247,317.028503   C381.835052,317.023621 392.201385,316.390961 402.451965,317.208710   C409.698395,317.786804 417.295319,319.222168 423.843750,322.222046   C438.137543,328.770142 439.081512,348.745483 426.139984,357.835449   C419.063049,362.806213 411.010284,365.266052 402.598206,365.883514   C391.528992,366.696014 380.367188,367.334473 369.302032,366.821716   C357.306641,366.265869 345.084869,364.788788 335.667389,356.084320   C325.400604,346.594818 325.968109,332.394073 336.918396,323.769348   C343.882874,318.283997 351.380676,313.902039 361.081848,316.799896   C363.992279,317.669250 367.365234,316.990326 371.022247,317.028503  M394.740173,354.078613   C402.432220,354.007782 410.124939,353.138519 416.601715,348.888580   C419.424438,347.036377 422.396271,343.056000 422.424927,340.015015   C422.449738,337.382111 418.861206,333.958527 416.040405,332.269806   C413.261780,330.606171 409.456665,330.187103 406.074829,330.080505   C389.207458,329.548767 372.329773,329.353851 355.458862,328.918091   C350.455994,328.788849 342.561981,333.979828 341.222351,338.635498   C340.057068,342.685272 342.741730,347.801575 349.004059,349.816833   C356.753113,352.310547 364.909576,353.976196 373.011963,354.799652   C379.861267,355.495728 386.884369,354.481232 394.740173,354.078613  z"/>
<path fill="#000000" opacity="1" stroke="none" d=" M412.382385,174.766922   C421.978729,194.880478 412.389282,216.509048 392.842651,221.406097   C373.131927,226.344284 354.867004,213.780579 352.822937,193.966354   C350.876373,175.097183 363.281525,159.474991 382.584229,158.222458   C395.324371,157.395737 405.708679,162.833435 412.382385,174.766922  M375.568909,172.770554   C367.410675,176.780441 364.413605,183.641556 365.034698,192.315796   C365.634430,200.691727 373.673004,210.770782 384.673950,210.112869   C394.881836,209.502365 403.459564,201.748581 404.028442,191.818970   C404.701965,180.063232 394.054016,166.137360 375.568909,172.770554  z"/>
<path fill="#000000" opacity="1" stroke="none" d=" M738.010742,203.016281   C735.018188,203.015289 732.510681,202.850967 730.030273,203.040604   C716.710388,204.058899 714.630127,193.913864 717.644165,185.418839   C723.080933,170.095413 734.468445,160.778931 750.612244,159.223129   C766.350586,157.706406 779.421265,163.604980 788.001770,177.579895   C791.448303,183.193268 792.019653,189.398285 790.890198,195.721603   C790.086487,200.222046 785.947815,202.971603 780.423950,202.990158   C766.452209,203.037125 752.480164,203.012329 738.010742,203.016281  M732.949768,182.581238   C731.613403,185.142349 730.277039,187.703476 728.764465,190.602295   C745.936646,190.602295 762.301697,190.602295 778.973938,190.602295   C778.673767,184.400879 775.531616,180.379913 771.204224,177.044922   C761.686462,169.709900 743.629700,168.534988 732.949768,182.581238  z"/>
<path fill="#000000" opacity="1" stroke="none" d=" M108.998428,237.802673   C108.628662,223.211090 108.985069,209.162262 114.015701,195.725677   C119.519997,181.023956 128.501038,169.143021 144.712570,166.272919   C166.572006,162.402908 184.563065,171.505447 191.914261,194.684143   C196.599899,209.458237 197.834824,224.639542 196.254227,240.218887   C194.972290,252.854141 193.058853,265.080414 186.033401,275.913605   C177.619644,288.887573 165.259125,292.755493 150.300766,292.308289   C130.788605,291.724884 116.864021,275.501770 112.084816,256.283325   C110.619553,250.391098 110.003761,244.287628 108.998428,237.802673  M122.004456,215.739548   C120.024834,229.347015 120.995422,242.785278 125.044617,255.881485   C128.270935,266.316284 133.564697,275.473145 144.913681,278.824127   C162.034485,283.879333 176.430817,275.024017 181.022156,257.285645   C185.208206,241.113113 184.860626,224.763290 182.781677,208.464554   C181.626190,199.405624 178.778992,190.209839 171.359955,184.346420   C157.559937,173.439941 137.773911,175.518097 129.070435,193.309067   C125.783516,200.027969 124.321571,207.639633 122.004456,215.739548  z"/>
<path fill="#FF00FF" opacity="0" stroke="none" d=" M394.285370,354.151184   C386.884369,354.481232 379.861267,355.495728 373.011963,354.799652   C364.909576,353.976196 356.753113,352.310547 349.004059,349.816833   C342.741730,347.801575 340.057068,342.685272 341.222351,338.635498   C342.561981,333.979828 350.455994,328.788849 355.458862,328.918091   C372.329773,329.353851 389.207458,329.548767 406.074829,330.080505   C409.456665,330.187103 413.261780,330.606171 416.040405,332.269806   C418.861206,333.958527 422.449738,337.382111 422.424927,340.015015   C422.396271,343.056000 419.424438,347.036377 416.601715,348.888580   C410.124939,353.138519 402.432220,354.007782 394.285370,354.151184  z"/>
<path fill="#FF00FF" opacity="0" stroke="none" d=" M375.902405,172.555466   C394.054016,166.137360 404.701965,180.063232 404.028442,191.818970   C403.459564,201.748581 394.881836,209.502365 384.673950,210.112869   C373.673004,210.770782 365.634430,200.691727 365.034698,192.315796   C364.413605,183.641556 367.410675,176.780441 375.902405,172.555466  z"/>
<path fill="#FF00FF" opacity="0" stroke="none" d=" M733.196472,182.315475   C743.629700,168.534988 761.686462,169.709900 771.204224,177.044922   C775.531616,180.379913 778.673767,184.400879 778.973938,190.602295   C762.301697,190.602295 745.936646,190.602295 728.764465,190.602295   C730.277039,187.703476 731.613403,185.142349 733.196472,182.315475  z"/>
<path fill="#FF00FF" opacity="0" stroke="none" d=" M122.016083,215.291946   C124.321571,207.639633 125.783516,200.027969 129.070435,193.309067   C137.773911,175.518097 157.559937,173.439941 171.359955,184.346420   C178.778992,190.209839 181.626190,199.405624 182.781677,208.464554   C184.860626,224.763290 185.208206,241.113113 181.022156,257.285645   C176.430817,275.024017 162.034485,283.879333 144.913681,278.824127   C133.564697,275.473145 128.270935,266.316284 125.044617,255.881485   C120.995422,242.785278 120.024834,229.347015 122.016083,215.291946  z"/>
</svg>